# xmcd
#
# Track frame offsets: 
#        182
#        23797
#        42370
#        65912
#        86262
#        109252
#        133340
#        156315
#        182540
#        199647
#        227130
#        239982
#        264362
#
# Disc length: 4017 seconds
#
# Revision: 2
# Processed by: cddbd v1.5.2PL0 Copyright (c) Steve Scherf et al.
# Submitted via: ExactAudioCopy v1.1
#
DISCID=ba0faf0d
DTITLE=Various Artist - Floating
DYEAR=1993
DGENRE=New Age
TTITLE0=Blue Chip Orchestra - Unicorn
TTITLE1=Pamela Golden - Moment of Time
TTITLE2=Lutte Berg - Morning Sun
TTITLE3=Gianni Nocenzi - 47th Dawning
TTITLE4=Erlend Krauser - Flight of the Phoenix
TTITLE5=Digital Experience - Moments in Love [RMX 87]
TTITLE6=Ernesto Vitolo - At the Embassy of Shanà
TTITLE7=Hariprasad Chaurasia and Amareesh - Life's a Beach
TTITLE8=Lutte Berg - Frid [pt.1]
TTITLE9=Lothar Krell - Hymne
TTITLE10=Osho Institute Of Music and Celebration - Mistery of the Beyond
TTITLE11=Milan - The Temptation
TTITLE12=The Syrenes - The Syrenes
EXTD=YEAR: 1997
EXTT0=
EXTT1=
EXTT2=
EXTT3=
EXTT4=
EXTT5=
EXTT6=
EXTT7=
EXTT8=
EXTT9=
EXTT10=
EXTT11=
EXTT12=
PLAYORDER=
